# xmcd
#
# Track frame offsets:
#	150
#	12175
#	32062
#	50000
#	65150
#	80812
#	101375
#	115275
#	132462
#	150600
#	166362
#
# Disc length: 2350 seconds
#
# Revision: 0
# Processed by: cddbd v1.5.2PL0 Copyright (c) Steve Scherf et al.
# Submitted via: audiograbber 1.83.01
#
DISCID=94092c0b
DTITLE=Wolf Codera - Busy People
DYEAR=1994
DGENRE=
TTITLE0=You Will Like It
TTITLE1=Night Walk
TTITLE2=Riding In The Rain
TTITLE3=Open The Door
TTITLE4=Dave's Flight
TTITLE5=Cry In The Desert
TTITLE6=Distressed
TTITLE7=Breakpoint
TTITLE8=Gliding In The Atmosphere
TTITLE9=Jammy
TTITLE10=Final Investigations
EXTD=
EXTT0=
EXTT1=
EXTT2=
EXTT3=
EXTT4=
EXTT5=
EXTT6=
EXTT7=
EXTT8=
EXTT9=
EXTT10=
PLAYORDER=
